HIERARCHY
ROOT root
{
	OFFSET	0	13.1	24.9
	CHANNELS 6  Xposition Yposition Zposition Xrotation Yrotation Zrotation
	JOINT spine_1
	{
		OFFSET	0	9.99999	0
		CHANNELS 3  Xrotation Yrotation Zrotation
		JOINT spine_2
		{
			OFFSET	0	112	-10
			CHANNELS 3  Xrotation Yrotation Zrotation
			JOINT spine_3
			{
				OFFSET	0	206.5	19.3
				CHANNELS 3  Xrotation Yrotation Zrotation
				JOINT spine_4
				{
					OFFSET	0	110.4	14.6
					CHANNELS 3  Xrotation Yrotation Zrotation
					JOINT neck_1
					{
						OFFSET	0	71.8	-50.3
						CHANNELS 3  Xrotation Yrotation Zrotation
						JOINT neck_2
						{
							OFFSET	0	86.2	-25.8
							CHANNELS 3  Xrotation Yrotation Zrotation
							JOINT head_ee
							{
								OFFSET	0	179.8	-8.7
								CHANNELS 3  Xrotation Yrotation Zrotation
								End Site
								{
									OFFSET	1	0	0
								}
							}
						}
					}
					JOINT left_clavicle
					{
						OFFSET	-43.2	22.4	-70.8
						CHANNELS 3  Xrotation Yrotation Zrotation
						JOINT left_shoulder
						{
							OFFSET	-93.9	-5.79999	48.7
							CHANNELS 3  Xrotation Yrotation Zrotation
							JOINT left_elbow
							{
								OFFSET	-291.4	-30.8	15.2
								CHANNELS 3  Xrotation Yrotation Zrotation
								JOINT left_lowarm_twist
								{
									OFFSET	-110.7	-3.89999	13.6
									CHANNELS 3  Xrotation Yrotation Zrotation
									JOINT left_hand
									{
										OFFSET	-110.7	-3.89999	13.6
										CHANNELS 3  Xrotation Yrotation Zrotation
										JOINT left_ee
										{
											OFFSET	-80.8	-5.10001	12.1
											CHANNELS 3  Xrotation Yrotation Zrotation
											End Site
											{
												OFFSET	1	0	0
											}
										}
									}
								}
							}
						}
					}
					JOINT right_clavicle
					{
						OFFSET	43.2	22.4	-70.8
						CHANNELS 3  Xrotation Yrotation Zrotation
						JOINT right_shoulder
						{
							OFFSET	93.9	-5.79999	48.7
							CHANNELS 3  Xrotation Yrotation Zrotation
							JOINT right_elbow
							{
								OFFSET	291.4	-30.8	15.2
								CHANNELS 3  Xrotation Yrotation Zrotation
								JOINT right_lowarm_twist
								{
									OFFSET	110.7	-3.89999	13.6
									CHANNELS 3  Xrotation Yrotation Zrotation
									JOINT right_hand
									{
										OFFSET	110.7	-3.89999	13.6
										CHANNELS 3  Xrotation Yrotation Zrotation
										JOINT right_ee
										{
											OFFSET	80.8	-5.10001	12.1
											CHANNELS 3  Xrotation Yrotation Zrotation
											End Site
											{
												OFFSET	1	0	0
											}
										}
									}
								}
							}
						}
					}
				}
			}
		}
	}
	JOINT left_hip
	{
		OFFSET	-82.8	-127.5	0.300001
		CHANNELS 3  Xrotation Yrotation Zrotation
		JOINT left_knee
		{
			OFFSET	-28.2	-396.7	2.2
			CHANNELS 3  Xrotation Yrotation Zrotation
			JOINT left_ankle
			{
				OFFSET	-11.7	-411.3	35.4
				CHANNELS 3  Xrotation Yrotation Zrotation
				JOINT left_toes
				{
					OFFSET	0	-60	-88.6
					CHANNELS 3  Xrotation Yrotation Zrotation
					JOINT left_foot_ee
					{
						OFFSET	-22.5	-16.5	-42.2
						CHANNELS 3  Xrotation Yrotation Zrotation
						End Site
						{
							OFFSET	1	0	0
						}
					}
				}
			}
		}
	}
	JOINT right_hip
	{
		OFFSET	82.8	-127.5	0.300001
		CHANNELS 3  Xrotation Yrotation Zrotation
		JOINT right_knee
		{
			OFFSET	28.2	-396.7	2.2
			CHANNELS 3  Xrotation Yrotation Zrotation
			JOINT right_ankle
			{
				OFFSET	11.7	-411.3	35.4
				CHANNELS 3  Xrotation Yrotation Zrotation
				JOINT right_toes
				{
					OFFSET	0	-60	-88.6
					CHANNELS 3  Xrotation Yrotation Zrotation
					JOINT right_foot_ee
					{
						OFFSET	22.5	-16.5	-42.2
						CHANNELS 3  Xrotation Yrotation Zrotation
						End Site
						{
							OFFSET	1	0	0
						}
					}
				}
			}
		}
	}
}
MOTION
Frames: 16
Frame Time: 0.02
2486.36 700.147 -1406.86 -7.88919 58.5831 4.71741 -0.146545 -0.136903 0.0610377 -0.146553 -0.140509 0.0522025 -0.146689 -0.148397 0.0211247 -0.146662 -0.143199 0.0442962 -17.4977 20.7391 5.4816 -19.2615 36.8999 13.6857 -0.0 0.0 -0.0 6.65927 14.1391 12.5971 9.13512 -22.2443 53.1986 4.69649 -66.7178 3.09292 -28.6656 -1.83411 3.13367 -2.62903 23.6231 -5.66561 -0.0 0.0 -0.0 10.1027 13.5621 -19.9764 -25.814 5.65535 -56.6945 0.623435 17.1625 -0.0940777 53.874 1.2599 6.51503 -3.10325 -29.0917 5.31908 0.0 0.0 0.0 -12.4076 -2.86848 16.9301 -1.89138 0.0732429 0.281008 39.1323 26.1744 -5.12255 -3.3059 0.0 0.0 -0.0 0.0 -0.0 34.2827 23.1056 -8.95045 4.24489 0.197934 0.621071 -15.9626 15.3713 -2.62336 -1.55717 0.0 0.0 0.0 0.0 0.0 
2465.3 700.223 -1410.48 -7.42219 58.8124 4.2325 -0.225242 -0.164827 0.180569 -0.225241 -0.175983 0.169715 -0.225779 -0.208229 0.128116 -0.225753 -0.185382 0.159394 -18.127 20.8329 5.26792 -20.0658 37.2773 13.8214 -0.0 0.0 -0.0 6.97587 14.253 13.1241 9.31624 -21.7447 53.7168 4.49197 -65.7795 2.90571 -28.9369 -1.85861 3.15836 -2.63508 24.333 -5.32458 -0.0 0.0 -0.0 10.2503 13.0635 -20.3196 -25.859 5.87459 -56.366 0.6227 17.1434 -0.0938607 53.24 1.21041 6.45064 -3.23153 -28.9687 6.08013 0.0 0.0 0.0 -13.2339 -2.9327 17.2078 -2.66529 0.100527 0.396645 38.6092 26.1014 -5.06809 -4.6245 0.0 0.0 -0.0 0.0 -0.0 33.9863 23.239 -8.94261 3.42121 0.155929 0.501707 -19.0174 18.5227 -3.21444 -0.702601 0.0 0.0 0.0 0.0 0.0 
2443.05 703.766 -1416.63 -8.4684 59.2801 5.15278 -0.133109 -0.0235527 0.205369 -0.133086 -0.036573 0.203454 -0.133209 -0.078962 0.191039 -0.133257 -0.0478 0.201112 -18.0193 20.8554 5.4957 -19.9162 37.1873 13.9839 -0.0 0.0 -0.0 7.10822 15.3434 13.2771 8.19068 -21.9096 54.5394 4.55368 -66.07 2.96205 -29.104 -1.87376 3.1735 -2.86258 27.0373 -5.14758 -0.0 0.0 -0.0 10.5704 14.0215 -21.0015 -25.5086 5.82048 -56.9932 0.564754 15.6298 -0.0775119 52.7362 1.17158 6.39908 -3.4051 -28.5794 7.24707 0.0 0.0 0.0 -12.5939 -2.77757 16.9251 -5.00601 0.173501 0.74844 37.3383 25.7256 -4.92741 -5.65378 0.0 0.0 -0.0 0.0 -0.0 32.9751 23.2593 -8.53689 3.59665 0.164732 0.527179 -19.4505 19.503 -3.3178 -0.872231 0.0 0.0 0.0 0.0 0.0 
2434.39 707.167 -1418.83 -9.49994 59.6463 6.1147 0.00870787 -0.0273867 0.190895 0.00872729 -0.0394783 0.188765 0.00860197 -0.0782443 0.176263 0.00856199 -0.0494249 0.186408 -17.575 20.5505 5.16029 -19.3441 36.7188 13.3401 -0.0 0.0 -0.0 7.09391 15.3226 13.2547 7.59933 -22.6716 54.7573 4.27164 -64.6856 2.70563 -28.9941 -1.86379 3.16355 -2.73132 26.3736 -4.77941 -0.0 0.0 -0.0 10.9252 13.3451 -21.8162 -24.4979 6.32576 -55.8446 0.584091 16.1375 -0.0828041 52.8934 1.18364 6.4152 -3.52207 -28.6337 7.85174 0.0 0.0 0.0 -12.6767 -2.95548 16.7433 -5.55917 0.18864 0.831981 36.3824 24.8868 -4.80352 -6.98533 0.0 0.0 -0.0 0.0 -0.0 34.1428 23.4958 -8.41292 2.5614 0.113921 0.37649 -20.1899 21.5138 -3.51283 -0.646044 0.0 0.0 0.0 0.0 0.0 
2421.86 711.63 -1424.09 -10.8752 59.3286 7.37358 -0.0234911 0.0585043 0.253183 -0.0234563 0.0422751 0.256393 -0.0232455 -0.012662 0.259546 -0.0233386 0.0284872 0.258288 -17.263 20.5148 4.67735 -19.0119 36.8678 12.7693 -0.0 0.0 -0.0 6.60255 15.3165 12.4412 6.94992 -22.8305 54.8711 4.15069 -64.0449 2.59659 -28.6187 -1.82988 3.12939 -2.64925 26.8405 -4.07556 -0.0 0.0 -0.0 11.2439 13.3695 -22.5313 -23.9975 6.74393 -55.6316 0.565701 15.6547 -0.0777671 53.0595 1.19644 6.4322 -3.59875 -28.7749 8.18452 0.0 0.0 0.0 -11.2853 -2.63873 15.8936 -7.32996 0.231667 1.10031 35.1855 24.3929 -4.66455 -8.07704 0.0 0.0 -0.0 0.0 -0.0 34.299 23.6349 -8.6594 2.3429 0.103546 0.344572 -21.5761 21.9969 -3.77312 -1.36301 0.0 0.0 0.0 0.0 0.0 
2406.93 713.742 -1424.6 -12.5708 60.265 9.1188 -0.0395153 0.101846 0.217015 -0.0394935 0.0878306 0.223056 -0.0391315 0.0388266 0.23656 -0.0392013 0.0756995 0.22746 -16.8777 18.9948 3.40122 -18.347 34.5919 10.7278 -0.0 0.0 -0.0 6.60809 16.1454 12.4044 6.01541 -24.2672 55.53 4.02292 -63.3344 2.48205 -28.6395 -1.83176 3.13129 -2.62533 27.5544 -3.56643 -0.0 0.0 -0.0 11.4937 13.9518 -23.0792 -22.6343 7.75667 -55.3354 0.571318 15.8024 -0.0792899 54.3909 1.30078 6.56712 -3.75874 -28.9008 8.9792 0.0 0.0 0.0 -10.3727 -2.42306 15.3603 -7.40266 0.233256 1.11136 32.9056 23.1234 -4.38801 -8.80648 0.0 0.0 -0.0 0.0 -0.0 35.092 23.9508 -8.34982 0.305087 0.0126827 0.0451001 -21.7261 20.38 -3.73824 -1.06368 0.0 0.0 0.0 0.0 0.0 
2387.36 721.209 -1429.2 -12.9617 60.5225 9.60824 -0.173388 0.112445 0.0268526 -0.173394 0.110508 0.0339533 -0.17333 0.100733 0.0567261 -0.173318 0.108427 0.0401053 -17.7745 18.3831 3.08466 -19.2926 33.6781 10.4801 -0.0 0.0 -0.0 6.19381 16.683 11.7052 3.76991 -24.9424 56.5742 3.96656 -63.0093 2.43176 -28.6666 -1.83419 3.13376 -2.59091 27.8618 -3.21663 -0.0 0.0 -0.0 11.7329 14.2898 -23.6117 -21.8909 8.22838 -54.8937 0.565994 15.6624 -0.0778464 54.5956 1.3171 6.58765 -3.87762 -28.8421 9.66489 0.0 0.0 0.0 -10.115 -2.4654 14.7844 -7.67971 0.239183 1.15346 31.9213 22.3245 -4.26223 -9.46996 0.0 0.0 -0.0 0.0 -0.0 34.8881 24.1548 -8.04545 -2.61579 -0.0988291 -0.389239 -21.3513 21.66 -3.72088 -1.14712 0.0 0.0 0.0 0.0 0.0 
2369.08 723.434 -1434.33 -13.9379 60.0293 10.9888 -0.072249 0.165077 -0.127025 -0.0722566 0.172825 -0.116264 -0.0726214 0.193499 -0.0770973 -0.0725852 0.178894 -0.106689 -18.1101 17.6589 1.65172 -19.6401 33.073 8.96097 -0.0 0.0 -0.0 6.13878 18.5378 11.5238 2.14767 -25.415 57.2803 3.9389 -62.8471 2.40713 -29.5761 -1.91681 3.21606 -2.65756 28.1146 -3.4456 -0.0 0.0 -0.0 11.8509 14.6473 -23.8691 -20.7688 8.83245 -55.2711 0.545773 15.129 -0.0724778 55.75 1.4105 6.70233 -4.02583 -28.9832 10.3865 0.0 0.0 0.0 -9.39122 -2.34071 13.8431 -9.41468 0.271661 1.4177 31.4514 20.9204 -4.18175 -9.37233 0.0 0.0 -0.0 0.0 -0.0 34.396 23.8107 -8.85288 -5.22263 -0.179525 -0.781138 -18.9231 18.2209 -3.1898 -1.09331 0.0 0.0 0.0 0.0 0.0 
2348.58 725.808 -1436.21 -13.2154 59.4283 10.4228 0.079864 0.285621 -0.0775695 0.0798206 0.289978 -0.0592374 0.0794936 0.295955 0.00262211 0.079613 0.292655 -0.0441518 -17.0756 17.3398 0.751573 -18.4481 32.8793 7.63169 -0.0 0.0 -0.0 5.87064 19.0445 11.0828 0.261976 -25.0118 57.6391 3.88438 -62.522 2.3587 -29.5152 -1.91124 3.21059 -2.34936 25.8257 -2.93767 -0.0 0.0 -0.0 11.8162 15.4925 -23.76 -20.5068 9.39807 -55.5718 0.54887 15.2108 -0.0732882 56.9127 1.50691 6.81594 -4.20984 -29.0641 11.3433 0.0 0.0 0.0 -8.10617 -2.32505 13.0376 -13.1845 0.31457 1.99444 33.4172 19.4374 -4.36522 -9.96379 0.0 0.0 -0.0 0.0 -0.0 33.1568 23.7425 -8.62092 -5.97715 -0.199545 -0.895199 -16.5821 19.3225 -2.82001 0.247438 -0.0 -0.0 0.0 0.0 0.0 
2332.09 725.804 -1440.78 -14.009 60.4687 11.0773 0.0121912 0.361883 -0.0799151 0.0121201 0.366235 -0.0567253 0.0117151 0.369981 0.0214406 0.0119042 0.368724 -0.0372609 -17.0776 17.6482 0.859266 -18.5023 33.4123 7.87758 -0.0 0.0 -0.0 5.67134 18.4778 10.7997 -1.30744 -25.7098 58.0218 3.70519 -61.4011 2.20052 -29.4649 -1.90664 3.20607 -2.41666 27.0676 -2.67574 -0.0 0.0 -0.0 12.4028 16.5195 -25.0625 -19.1537 10.6464 -54.6498 0.519183 14.4234 -0.0656961 56.785 1.4962 6.80355 -3.97143 -28.8917 10.147 0.0 0.0 0.0 -8.35748 -1.52786 12.6846 -11.7325 0.302537 1.77198 32.7236 20.0662 -4.30334 -9.39788 0.0 0.0 -0.0 0.0 -0.0 32.8417 23.4278 -8.52387 -7.88955 -0.243537 -1.18536 -15.7866 18.5062 -2.66328 -0.143313 0.0 0.0 0.0 0.0 0.0 
2316.41 726.651 -1444.9 -13.0533 61.063 10.0365 0.090082 0.28463 -0.0306692 0.0900369 0.286005 -0.0124952 0.0899534 0.282317 0.0474521 0.0900648 0.286269 0.0022694 -16.2874 17.8465 0.482255 -17.6498 33.9506 7.34763 -0.0 0.0 -0.0 5.38212 19.4927 10.3167 -2.90708 -26.0463 58.437 3.47389 -59.8244 1.99896 -29.6857 -1.92685 3.22589 -2.18705 24.814 -2.536 -0.0 0.0 -0.0 12.5432 18.9957 -25.2529 -17.854 11.0659 -55.5116 0.560871 15.5275 -0.0764691 58.5271 1.64457 6.9704 -3.63028 -28.7806 8.35279 0.0 0.0 0.0 -6.8027 0.0241926 11.7116 -16.4065 0.321116 2.48869 28.9355 18.8309 -3.86547 -8.19805 0.0 0.0 -0.0 0.0 -0.0 30.0987 24.1386 -7.44499 -5.83516 -0.195892 -0.873714 -12.2343 19.9764 -2.08514 -2.11749 0.0 0.0 0.0 0.0 0.0 
2304.19 723.404 -1447.44 -12.5714 61.2446 9.40034 0.12612 0.346898 0.00388769 0.126053 0.345948 0.0259541 0.126187 0.332981 0.0973504 0.126339 0.344177 0.0435399 -16.9347 18.199 0.900018 -18.4424 34.4376 8.12963 -0.0 0.0 -0.0 4.98713 19.6513 9.71346 -4.65409 -25.882 58.1915 3.34576 -58.8812 1.88873 -27.6312 -1.74176 3.0385 -1.41776 22.6034 0.809244 -0.0 0.0 -0.0 12.8308 22.3865 -25.6599 -15.948 10.8579 -55.9351 0.54649 15.1479 -0.0726651 59.3229 1.71401 7.04511 -4.11398 -28.8204 10.9752 0.0 0.0 0.0 -6.14891 3.54119 11.2919 -23.8314 0.23051 3.62357 32.7944 15.125 -4.23462 -7.92011 0.0 0.0 -0.0 0.0 -0.0 28.5375 21.9892 -6.84834 -5.34281 -0.182815 -0.799288 -7.07896 20.8051 -1.20669 -5.30849 0.0 0.0 0.0 0.0 0.0 
2291.65 721.946 -1447.66 -13.8145 61.7827 9.98656 0.156678 0.347828 0.18059 0.156633 0.335632 0.202357 0.157835 0.286346 0.267588 0.157882 0.325013 0.219007 -17.3413 18.2013 2.25203 -18.819 33.7372 9.48993 -0.0 0.0 -0.0 4.65063 18.8756 9.21776 -5.99987 -26.5867 58.3259 3.0869 -56.8052 1.66954 -28.3811 -1.80854 3.10766 -1.56517 21.3211 -0.633453 -0.0 0.0 -0.0 13.1572 24.895 -26.1669 -14.1922 11.6639 -55.9292 0.559613 15.4944 -0.0761326 60.2206 1.7936 7.12824 -4.03322 -28.6456 10.6434 0.0 0.0 0.0 -4.0555 4.90986 10.8283 -28.8169 0.0875612 4.37508 31.2538 12.2397 -4.04443 -6.59159 0.0 0.0 -0.0 0.0 -0.0 27.3584 21.1545 -5.65767 -4.14335 -0.148281 -0.618451 -1.90241 20.7565 -0.320461 -9.43851 0.0 0.0 0.0 0.0 0.0 
2278.07 725.156 -1447.83 -14.1308 62.0768 9.71615 0.157453 0.32538 0.204631 0.157422 0.3117 0.224921 0.158668 0.258257 0.284692 0.158681 0.299978 0.240332 -16.5982 18.7895 2.61305 -18.0434 34.6016 9.82148 -0.0 0.0 -0.0 4.42574 18.806 8.87523 -8.00942 -26.0253 58.996 2.91233 -55.2612 1.52475 -26.9018 -1.67769 2.97041 -1.30151 20.6979 0.632122 -0.0 0.0 -0.0 13.5198 27.0244 -26.7548 -13.2107 12.1382 -55.5518 0.56873 15.7344 -0.0785867 61.4729 1.9068 7.24211 -3.86626 -28.0425 10.1036 0.0 0.0 0.0 -1.04845 6.98298 9.66642 -35.1996 -0.189942 5.31468 33.1073 10.73 -4.2266 -6.09822 0.0 0.0 -0.0 0.0 -0.0 25.283 19.4321 -4.21129 -2.44459 -0.0929062 -0.363632 1.22276 22.2275 0.207248 -11.7179 0.0 0.0 0.0 0.0 0.0 
2268.38 724.226 -1448.86 -14.0381 62.1218 9.43996 0.210576 0.399872 0.300843 0.210546 0.379918 0.325679 0.212755 0.304467 0.39712 0.212719 0.363363 0.344052 -16.8921 18.9972 3.34209 -18.3693 34.6304 10.682 -0.0 0.0 -0.0 4.22482 18.2602 8.56966 -9.92877 -25.4386 59.3598 2.73597 -53.5691 1.38131 -26.4214 -1.63596 2.92511 -1.13847 19.6519 1.13441 -0.0 0.0 -0.0 13.859 28.542 -27.336 -11.6992 12.9738 -55.6206 0.596595 16.4644 -0.086314 62.0888 1.96338 7.29721 -3.88193 -27.9187 10.268 0.0 0.0 0.0 0.758932 8.18443 8.75734 -39.8613 -0.457965 5.97886 33.4173 8.9209 -4.24864 -5.70197 0.0 0.0 -0.0 0.0 -0.0 23.605 18.1074 -3.23823 -1.23862 -0.0490152 -0.183759 6.27479 22.6488 1.05044 -13.432 0.0 0.0 0.0 0.0 0.0 
2254.82 725.633 -1456.84 -15.2154 63.4925 10.4879 0.189684 0.366449 0.321245 0.189675 0.345265 0.343912 0.191803 0.266645 0.407901 0.191721 0.327719 0.360671 -17.7446 19.7995 4.712 -19.418 35.5335 12.6263 -0.0 0.0 -0.0 4.08036 19.9287 8.34912 -10.5048 -24.6603 59.6457 2.42835 -50.2555 1.13909 -26.0829 -1.60679 2.89299 -1.09995 18.774 0.979489 -0.0 0.0 -0.0 13.7718 27.6771 -27.2537 -11.0725 13.643 -55.4592 0.663642 18.1983 -0.106289 63.3738 2.08332 7.4102 -3.66109 -28.9402 8.42345 0.0 0.0 0.0 2.18229 7.89244 7.58407 -40.784 -0.517394 6.10767 30.5503 7.71405 -3.94821 -5.9053 0.0 0.0 -0.0 0.0 -0.0 22.0088 17.3013 -2.47256 -0.720635 -0.0290016 -0.106787 9.4069 27.6981 1.64772 -14.6141 0.0 0.0 0.0 0.0 0.0 
